<svg width="250" height="500" viewBox="0 0 250 500" fill="none" xmlns="http://www.w3.org/2000/svg">
<rect x="0.5" y="0.5" width="249" height="499" rx="14.5" fill="white"/>
<rect x="0.5" y="0.5" width="249" height="499" rx="14.5" stroke="black" stroke-dasharray="4 4"/>
<path d="M99.46 237.77H101.83V244.37H107.53V237.77H109.84V255.56H99.46V237.77ZM101.83 246.38V253.52H107.53V246.38H101.83ZM119.17 235.19H121.57V262.34H119.17V235.19ZM114.82 245.93H120.04V248H114.82V245.93ZM113.14 235.76H115.51V260.96H113.14V235.76ZM145.958 235.19H148.448V262.37H145.958V235.19ZM137.648 244.13H146.768V246.17H137.648V244.13ZM127.568 238.22H130.058V255.05H127.568V238.22ZM127.568 253.7H129.668C131.068 253.7 132.428 253.67 133.748 253.61C135.088 253.55 136.418 253.44 137.738 253.28C139.058 253.12 140.408 252.9 141.788 252.62L142.088 254.69C140.648 254.97 139.248 255.19 137.888 255.35C136.548 255.51 135.198 255.63 133.838 255.71C132.498 255.77 131.108 255.8 129.668 255.8H127.568V253.7Z" fill="black"/>
</svg>
